<?xml version="1.0" encoding="UTF-8" standalone="no"?>
<svg
   xmlns:dc="http://purl.org/dc/elements/1.1/"
   xmlns:cc="http://creativecommons.org/ns#"
   xmlns:rdf="http://www.w3.org/1999/02/22-rdf-syntax-ns#"
   xmlns:svg="http://www.w3.org/2000/svg"
   xmlns="http://www.w3.org/2000/svg"
   xmlns:sodipodi="http://sodipodi.sourceforge.net/DTD/sodipodi-0.dtd"
   xmlns:inkscape="http://www.inkscape.org/namespaces/inkscape"
   width="2253.5557"
   height="916.8078"
   viewBox="0 0 173.75455 70.688082"
   version="1.1"
   id="svg839"
   sodipodi:docname="terrys-logo-svg-vector.svg"
   inkscape:version="0.92.3 (2405546, 2018-03-11)">
  <metadata
     id="metadata845">
    <rdf:RDF>
      <cc:Work
         rdf:about="">
        <dc:format>image/svg+xml</dc:format>
        <dc:type
           rdf:resource="http://purl.org/dc/dcmitype/StillImage" />
      </cc:Work>
    </rdf:RDF>
  </metadata>
  <defs
     id="defs843" />
  <sodipodi:namedview
     pagecolor="#ffffff"
     bordercolor="#666666"
     borderopacity="1"
     objecttolerance="10"
     gridtolerance="10"
     guidetolerance="10"
     inkscape:pageopacity="0"
     inkscape:pageshadow="2"
     inkscape:window-width="1920"
     inkscape:window-height="1013"
     id="namedview841"
     showgrid="false"
     inkscape:zoom="0.3228"
     inkscape:cx="1126.8333"
     inkscape:cy="458.36198"
     inkscape:window-x="-9"
     inkscape:window-y="-9"
     inkscape:window-maximized="1"
     inkscape:current-layer="g837" />
  <g
     id="g837"
     style="clip-rule:evenodd;fill-rule:evenodd"
     transform="translate(-9.4964495,-61.030727)">
    <path
       d="M 0,0 H 192.756 V 192.756 H 0 Z"
       id="path831"
       inkscape:connector-curvature="0"
       style="fill:#ffffff;fill-opacity:0" />
    <path
       d="m 62.738,79.3 c -1.737,0.208 -3.715,0 -5.51,0.185 -5.212,0.543 -10.476,3.436 -12.731,8.522 -0.671,1.34 -1.163,2.806 -1.308,4.321 1.797,-2.796 4.718,-4.87 8.222,-4.261 2.192,0.185 4.019,1.259 6.059,1.771 1.554,0.334 2.62,-0.612 3.96,-0.915 0.337,0.029 0.546,0.402 0.609,0.668 -0.458,1.949 -2.438,3.475 -4.232,4.055 -4.352,1.152 -8.374,-2.44 -12.606,-0.277 -1.952,1.22 -2.562,3.287 -2.377,5.482 0.246,2.343 2.377,4.506 4.567,5.175 2.834,0.878 6.152,0.335 8.708,-0.786 0.337,-0.039 0.671,0.298 0.765,0.608 0,1.184 -1.217,1.881 -2.011,2.587 -3.593,2.62 -9.257,3.317 -13.335,1.312 -4.083,-2.046 -6.524,-6.25 -6.49,-10.726 -0.034,-5.786 2.192,-10.659 5.999,-14.86 4.841,-5.147 11.36,-7.064 18.424,-6.239 1.463,0.324 3.321,0.601 3.864,2.283 0.06,0.454 -0.18,0.878 -0.577,1.095 z m 5.847,-12.607 c -4.838,4.016 -11.906,4.172 -18.238,3.227 -3.96,-0.64 -8.924,-1.188 -11.882,2.009 -4.016,4.202 -5.453,9.468 -7.37,14.555 l -4.047,11.848 c -1.462,3.258 -2.709,6.976 -6.149,9.045 -2.652,1.22 -6.147,0.491 -9.168,0.638 a 1.803,1.803 0 0 1 -1.46,-0.541 c -0.243,-0.274 -0.277,-0.739 -0.154,-1.071 0.58,-0.761 1.551,-0.878 2.314,-1.43 5.907,-3.62 7.339,-10.144 9.776,-15.714 3.015,-7.885 7.276,-17.084 16.018,-20.804 -7.278,-1.397 -16.352,-2.521 -22.262,2.292 -2.098,1.888 -2.864,4.715 -2.158,7.37 -0.157,0.394 -0.522,0.664 -0.917,0.76 -1.8,0 -3.138,-1.86 -3.807,-3.326 -1.28,-3.287 -0.334,-7.124 1.888,-9.713 7.462,-8.461 21.04,-5.815 30.576,-3.532 6.544,1.8 13.275,3.532 20.676,2.952 2.983,-0.235 5.633,-1.332 8.039,-2.952 0.365,-0.089 0.734,-0.029 1.002,0.186 0.306,0.248 0.275,0.729 0.186,1.095 -0.608,1.157 -1.828,2.221 -2.863,3.106 z m 16.564,20.765 c 1.437,-1.852 2.317,-4.627 1.191,-6.939 -0.977,-1.917 -3.138,-2.312 -5.175,-2.195 -1.34,0.186 -2.715,0.915 -3.229,2.254 l -2.166,6.425 c -0.303,1.28 -1.033,2.44 -0.941,3.866 0.212,0.426 0.666,0.523 1.064,0.612 a 12.042,12.042 0 0 0 6.089,-1.37 c 1.22,-0.607 2.255,-1.582 3.167,-2.653 z m 1.278,4.269 c -1.732,0.854 -3.59,1.37 -5.448,1.83 0.186,1.4 0.854,2.707 1.341,4.046 2.288,4.781 4.658,10.049 9.716,13.155 0.214,0.248 0.394,0.671 0.151,0.975 -0.883,0.977 -2.314,0.245 -3.289,-0.058 -7.519,-2.989 -12.82,-10.905 -15.195,-18.059 l -3.503,10.02 c -0.217,0.727 -0.395,1.826 0.365,2.372 0.549,0.452 1.89,0.58 1.523,1.612 -0.274,0.395 -0.765,0.462 -1.249,0.462 l -10.537,-0.028 c -0.308,-0.097 -0.671,-0.365 -0.729,-0.7 0.058,-1.534 1.818,-1.043 2.647,-1.829 1.22,-0.917 1.368,-2.351 1.86,-3.563 l 7.095,-21.136 c 0.086,-0.669 0.303,-1.525 -0.031,-2.134 -0.431,-1.035 -2.529,-1.095 -1.8,-2.464 0.611,-0.58 1.649,-0.303 2.409,-0.274 5.178,1.091 10.11,-0.797 15.346,-0.364 2.649,0.267 5.447,1.97 6.215,4.685 1.431,5.025 -2.682,9.504 -6.887,11.452 z m 30.762,-10.055 c -0.611,-1.675 -2.346,-2.924 -4.084,-2.924 -1.822,-0.146 -3.68,0.434 -4.535,2.106 l -3.285,9.468 c -0.061,0.395 -0.25,0.915 0.146,1.249 2.5,0.917 5.24,0 7.369,-1.191 3.171,-1.702 5.272,-5.145 4.389,-8.708 z m -0.216,10.599 a 25.752,25.752 0 0 1 -5.689,1.741 c 1.307,4.655 3.438,9.013 6.332,13.065 1.277,1.706 2.893,3.075 4.629,4.232 0.182,0.298 0.244,0.669 0.064,1.006 -0.77,0.915 -2.076,0.335 -2.955,0.118 -7.645,-2.981 -12.85,-11.117 -15.32,-18.305 l -3.625,10.02 c -0.119,0.608 -0.242,1.377 0.121,1.918 0.459,0.886 2.137,0.583 1.803,1.862 -0.309,0.457 -0.799,0.521 -1.254,0.549 l -10.263,-0.186 c -0.428,0 -0.854,-0.334 -0.972,-0.729 0,-1.497 1.732,-1.103 2.526,-1.764 2.436,-2.015 2.404,-5.207 3.624,-7.802 l 5.788,-17.112 c 0.059,-0.729 0.242,-1.497 -0.277,-2.069 -0.426,-0.943 -2.129,-1.011 -1.525,-2.231 0.43,-0.483 1.221,-0.454 1.828,-0.337 5.426,1.163 10.66,-0.658 16.111,-0.117 2.256,0.334 4.57,1.525 5.607,3.78 1.34,2.401 0.572,5.696 -0.914,7.822 -1.467,2.047 -3.565,3.504 -5.639,4.539 z m 48.791,-14.586 c -5.029,1.98 -9.473,6.91 -12.215,11.513 l -9.199,15.077 c -4.627,7.064 -10.963,14.701 -18.361,19.18 -14.555,9.536 -35.534,11.759 -52.776,6.456 -10.563,-2.984 -20.279,-7.943 -28.992,-15.404 -0.755,-0.883 -2.006,-1.673 -1.761,-2.861 0.206,-0.431 0.637,-0.551 1.062,-0.52 l 1.187,0.52 c 19.067,13.029 45.773,17.87 68.977,10.471 10.963,-3.711 22.479,-10.139 28.748,-21.13 -3.84,3.621 -7.76,7.245 -13.061,7.431 -2.047,-0.089 -4.113,-1.16 -4.842,-3.138 -1.406,-4.962 1.732,-8.985 3.65,-13.068 1.799,-3.162 3.869,-6.242 5.117,-9.625 0.188,-1.032 0.551,-2.46 -0.457,-3.227 -0.764,-0.64 -1.92,-0.483 -2.861,-0.395 -0.332,-0.029 -0.67,-0.306 -0.67,-0.669 0.062,-1.309 1.551,-1.977 2.559,-2.403 2.039,-0.617 4.594,-0.581 6.145,1.094 1.957,1.672 1.801,4.655 1.133,6.879 -1.738,4.567 -4.232,8.836 -6.484,13.186 -0.584,1.523 -1.77,3.355 -0.672,5.029 1.34,1.22 3.562,0.697 4.992,0.058 6.182,-2.924 9.287,-9.497 12.24,-14.918 2.223,-4.595 5.787,-10.657 11.424,-11.671 1.736,-0.274 3.957,-0.542 5.449,0.552 0.486,0.462 0.213,1.308 -0.332,1.583 z m 11.174,-3.867 c -2.01,1.338 -5.176,1.25 -7.125,-0.096 a 0.897,0.897 0 0 1 -0.34,-0.878 c 0.551,-0.766 1.682,-0.274 2.469,-0.611 2.041,-0.481 3.898,-2.466 4.324,-4.536 0.275,-1.337 0.303,-2.775 -0.061,-4.083 -0.031,-0.363 0.246,-0.661 0.58,-0.729 1.338,0.334 1.979,1.769 2.463,2.894 1.254,2.832 0.313,6.276 -2.31,8.039 z m 6.941,11.268 c -0.24,0.274 -0.67,0.274 -0.973,0.149 -2.375,-1.518 -4.449,-4.196 -7.49,-3.624 -1.035,0.402 -1.828,1.466 -1.801,2.561 0.4,3.347 2.256,6.09 3.199,9.23 1.736,4.232 1.705,10.197 -2.006,13.521 -3.201,3.166 -8.227,4.386 -12.488,2.617 -4.145,-1.672 -6.914,-5.965 -7.002,-10.325 0.031,-0.451 0.154,-0.883 0.545,-1.188 a 0.892,0.892 0 0 1 0.822,-0.058 c 0.949,0.795 1.283,1.976 2.1,2.892 1.861,2.587 4.697,4.419 7.889,3.593 1.586,-0.454 3.293,-2.037 3.535,-3.741 0.729,-4.232 -1.703,-7.615 -2.711,-11.328 -1.004,-3.02 -0.824,-6.701 1.246,-9.139 1.799,-1.978 4.174,-2.77 6.855,-2.404 a 9.293,9.293 0 0 1 2.801,0.907 c 0.428,-0.452 1.006,-0.669 1.611,-0.541 2.469,0.787 3.443,3.465 4.232,5.567 0.03,0.522 0.001,1.005 -0.364,1.311 z"
       id="path833"
       inkscape:connector-curvature="0"
       style="fill:#d8733d" />
    <path
       d="m 43.86,93.136 c 1.844,-2.874 4.464,-4.59 7.422,-4.078 0.961,0.083 1.91,0.366 2.873,0.713 1.019,0.368 2.033,0.778 3.086,1.043 1.04,0.222 1.92,0.01 2.635,-0.256 l 0.962,-0.387 c -0.471,0.957 -1.881,2.054 -3.315,2.519 -0.923,0.243 -1.824,0.235 -2.796,0.105 -1.024,-0.137 -2.035,-0.403 -3.044,-0.638 -2.087,-0.486 -4.509,-0.915 -6.976,0.347 -0.31,0.192 -0.591,0.405 -0.847,0.632 z M 62.323,78.344 c -1.437,0.169 -3.407,-0.037 -5.199,0.146 -5.465,0.57 -11.093,3.595 -13.53,9.092 -0.713,1.422 -1.238,2.986 -1.4,4.653 l -0.397,4.111 c 0.026,0.466 -0.058,1.542 0.031,2.601 0.295,2.818 2.777,5.274 5.269,6.037 2.756,0.854 5.863,0.48 8.41,-0.431 l -0.637,0.572 -0.682,0.564 c -3.321,2.372 -8.535,2.978 -12.227,1.162 -3.728,-1.868 -5.965,-5.716 -5.934,-9.825 -0.034,-5.498 2.064,-10.138 5.732,-14.185 4.59,-4.883 10.775,-6.722 17.573,-5.926 l 1.019,0.233 c 0.332,0.086 0.66,0.183 0.966,0.319 0.486,0.218 0.83,0.484 1.006,0.877 z M 70.312,63.47 c -0.56,0.823 -1.46,1.68 -2.369,2.458 -4.489,3.726 -11.159,3.939 -17.444,3.005 -3.844,-0.622 -9.385,-1.34 -12.763,2.312 -2.114,2.21 -3.527,4.681 -4.655,7.224 -1.108,2.495 -1.96,5.115 -2.927,7.678 l -4.052,11.864 c -0.705,1.572 -1.361,3.25 -2.252,4.789 -0.873,1.502 -1.936,2.801 -3.466,3.717 -1.098,0.477 -2.422,0.591 -3.925,0.58 -1.601,-0.01 -3.258,-0.156 -4.783,-0.08 -0.301,0.021 -0.491,-0.043 -0.679,-0.228 0.052,0.039 0.253,-0.097 0.635,-0.274 l 0.632,-0.293 a 4.27,4.27 0 0 0 0.721,-0.418 c 3.167,-1.94 5.079,-4.629 6.529,-7.509 1.409,-2.795 2.394,-5.856 3.619,-8.658 3.025,-7.911 7.174,-16.728 15.485,-20.26 l 3.018,-1.285 -3.222,-0.617 c -7.2,-1.385 -16.778,-2.636 -23.101,2.511 -2.259,2.035 -3.168,5.034 -2.589,7.896 -0.958,-0.005 -2.047,-1.247 -2.721,-2.72 -1.126,-2.893 -0.298,-6.315 1.724,-8.666 6.994,-7.937 19.864,-5.546 29.569,-3.222 6.542,1.797 13.41,3.577 21.005,2.982 2.971,-0.238 5.625,-1.273 8.011,-2.786 z m 4.339,29.83 -0.58,-1.751 c 0.224,0.327 0.522,0.531 0.797,0.659 l 0.804,0.251 c 2.589,0.118 4.797,-0.434 6.764,-1.455 1.39,-0.695 2.537,-1.798 3.487,-2.916 1.558,-2.009 2.671,-5.219 1.312,-8.013 -1.27,-2.495 -4.062,-2.865 -6.17,-2.743 -1.542,0.215 -3.375,1.103 -4.071,2.908 l -2.184,6.49 c -0.146,0.611 -0.408,1.238 -0.609,1.836 -0.211,0.643 -0.407,1.39 -0.378,2.239 l -4.575,12.522 c -0.12,0.408 -0.264,1.014 -0.229,1.617 0.034,0.617 0.227,1.346 0.938,1.855 l -8.799,0.245 0.608,-0.165 c 0.337,-0.104 0.773,-0.279 1.145,-0.632 0.755,-0.599 1.163,-1.33 1.439,-2.022 0.253,-0.621 0.423,-1.312 0.669,-1.917 l 7.135,-21.259 c 0.06,-0.452 0.139,-0.857 0.162,-1.254 0.029,-0.441 0.008,-1.035 -0.295,-1.589 -0.221,-0.465 -0.585,-0.768 -0.868,-0.964 l -0.658,-0.381 c 0.385,0 0.781,0.063 1.132,0.087 2.729,0.562 5.371,0.345 7.89,0.065 1.256,-0.142 2.513,-0.301 3.783,-0.4 1.228,-0.094 2.456,-0.133 3.709,-0.028 2.38,0.237 4.724,1.759 5.346,3.96 1.22,4.293 -2.296,8.397 -6.359,10.281 -1.628,0.802 -3.407,1.301 -5.256,1.761 l -0.87,0.214 0.118,0.886 c 0.106,0.811 0.353,1.57 0.614,2.268 l 0.799,2.035 c 0.575,1.202 1.176,2.482 1.802,3.705 0.641,1.246 1.325,2.482 2.101,3.663 1.445,2.202 3.221,4.259 5.601,5.862 a 4.832,4.832 0 0 1 -0.886,-0.219 l -0.82,-0.28 C 82.097,107.863 76.972,100.289 74.651,93.3 Z m 43.507,-11.869 c -0.777,-2.152 -2.875,-3.684 -5.053,-3.684 -2.016,-0.144 -4.326,0.499 -5.426,2.652 l -3.371,9.682 -0.121,0.862 c -0.008,0.405 0.092,0.961 0.596,1.39 3.227,1.247 6.295,0.154 8.498,-1.077 3.457,-1.857 5.899,-5.704 4.877,-9.825 z m -16.949,-4.258 c 3.273,0.671 6.061,0.489 8.732,0.246 1.326,-0.121 2.648,-0.261 3.98,-0.337 1.287,-0.073 2.562,-0.089 3.875,0.042 2.053,0.306 3.99,1.397 4.84,3.24 1.082,1.941 0.523,4.841 -0.844,6.793 -1.336,1.865 -3.252,3.215 -5.244,4.208 a 24.5,24.5 0 0 1 -5.447,1.664 l -1.078,0.198 0.299,1.056 c 1.34,4.773 3.529,9.244 6.486,13.387 1.246,1.658 2.779,3.009 4.402,4.146 a 4.033,4.033 0 0 1 -0.867,-0.146 l -0.686,-0.19 c -7.213,-2.843 -12.256,-10.623 -14.68,-17.674 l -0.922,-2.681 -4.611,12.755 c -0.088,0.438 -0.156,0.852 -0.156,1.251 0,0.444 0.074,0.992 0.41,1.492 0.244,0.418 0.598,0.658 0.881,0.81 l -9.383,-0.133 0.724,-0.196 c 0.305,-0.089 0.726,-0.232 1.089,-0.536 1.432,-1.186 2.105,-2.701 2.579,-4.14 0.224,-0.696 0.415,-1.411 0.624,-2.114 0.193,-0.646 0.399,-1.285 0.685,-1.89 l 5.868,-17.334 c 0.045,-0.525 0.107,-0.938 0.094,-1.33 -0.016,-0.459 -0.123,-1.006 -0.516,-1.5 -0.207,-0.379 -0.504,-0.641 -0.74,-0.82 z m 64.078,-0.418 c -5.256,2.131 -9.822,7.278 -12.596,11.926 l -9.188,15.059 c -4.594,7.015 -10.834,14.505 -18.049,18.87 -14.277,9.354 -34.968,11.568 -51.961,6.344 -10.411,-2.942 -19.986,-7.824 -28.566,-15.157 l -0.635,-0.653 c -0.685,-0.74 -0.763,-0.863 -0.808,-0.962 l 0.737,0.342 c 19.296,13.155 46.289,18.032 69.773,10.542 11.062,-3.744 22.861,-10.28 29.305,-21.583 l -1.555,-1.223 c -3.895,3.674 -7.545,6.989 -12.408,7.156 -1.756,-0.097 -3.33,-1.021 -3.869,-2.482 -0.592,-2.168 -0.223,-4.153 0.57,-6.149 0.842,-2.117 2.098,-4.125 3.045,-6.147 0.893,-1.562 1.846,-3.094 2.73,-4.661 0.928,-1.636 1.779,-3.299 2.422,-5.042 l 0.199,-1.027 c 0.055,-0.35 0.088,-0.708 0.084,-1.055 -0.016,-0.75 -0.217,-1.638 -1.053,-2.273 -0.611,-0.515 -1.318,-0.65 -1.932,-0.688 a 7.645,7.645 0 0 0 -1.07,0.027 c 0.768,-0.656 1.281,-0.889 1.791,-1.103 1.873,-0.543 3.922,-0.342 5.066,0.891 1.463,1.251 1.518,3.704 0.865,5.873 -1.723,4.507 -4.191,8.718 -6.414,13.016 -0.35,0.894 -0.803,1.766 -1.043,2.654 -0.273,1.011 -0.34,2.215 0.426,3.378 2.01,1.876 4.828,1.054 6.244,0.421 3.301,-1.56 5.75,-4.084 7.727,-6.851 0.98,-1.371 1.859,-2.824 2.68,-4.279 0.805,-1.43 1.564,-2.882 2.305,-4.241 2.26,-4.666 5.633,-10.23 10.703,-11.143 0.807,-0.128 1.719,-0.256 2.613,-0.223 0.766,0.027 1.37,0.146 1.862,0.443 z m 12.108,-12.308 c 0.447,0.612 0.691,1.16 0.938,1.732 1.064,2.396 0.262,5.32 -1.949,6.809 -1.396,0.93 -3.535,1.035 -5.145,0.376 0.352,-0.016 0.641,-0.058 0.934,-0.157 2.438,-0.578 4.572,-2.88 5.072,-5.309 0.226,-1.1 0.302,-2.289 0.15,-3.451 z m 5.837,19.85 c -0.971,-0.66 -2.078,-1.708 -3.27,-2.492 -1.297,-0.854 -2.846,-1.53 -4.729,-1.176 -1.555,0.586 -2.654,2.043 -2.615,3.613 0.219,1.819 0.832,3.495 1.471,5.011 0.619,1.463 1.324,2.947 1.783,4.481 1.656,4.041 1.514,9.538 -1.75,12.459 -2.941,2.911 -7.566,4.022 -11.424,2.422 -3.725,-1.503 -6.266,-5.376 -6.387,-9.329 l 0.615,0.596 0.477,0.789 c 0.178,0.278 0.383,0.572 0.637,0.854 1.982,2.714 5.166,4.856 8.895,3.892 1.871,-0.535 3.947,-2.366 4.262,-4.548 0.404,-2.359 -0.082,-4.437 -0.75,-6.346 -0.635,-1.816 -1.494,-3.595 -1.994,-5.426 -0.936,-2.814 -0.729,-6.106 1.043,-8.193 1.562,-1.716 3.582,-2.396 5.959,-2.072 a 8.215,8.215 0 0 1 2.488,0.807 l 0.666,0.342 c 0.736,-0.781 0.975,-0.84 1.199,-0.796 0.887,0.313 1.545,0.967 2.105,1.847 0.299,0.472 0.547,0.982 0.766,1.492 l 0.572,1.452 z"
       id="path835"
       inkscape:connector-curvature="0"
       style="fill:#d8733d" />
  </g>
</svg>
